<svg width="16" height="16" viewBox="0 0 16 16" fill="none" xmlns="http://www.w3.org/2000/svg">
<path d="M8.66699 10.9999V6.33325" stroke="#AA0000" stroke-linecap="round" stroke-linejoin="round"/>
<path d="M6.27917 1.33325H3.96579C2.72469 1.33325 2.10413 1.33325 1.71857 1.71881C1.33301 2.10438 1.33301 2.72493 1.33301 3.96604V6.27942C1.33301 7.08652 1.33301 7.49012 1.48331 7.85298C1.63362 8.21585 1.91898 8.50118 2.48969 9.07192L6.10978 12.692C7.42621 14.0084 8.08434 14.6666 8.90227 14.6666C9.72021 14.6666 10.3783 14.0084 11.6947 12.692L12.6917 11.695C14.0081 10.3786 14.6663 9.72045 14.6663 8.90252C14.6663 8.08458 14.0081 7.42645 12.6917 6.11003L9.07167 2.48994C8.50094 1.91923 8.21561 1.63387 7.85274 1.48356C7.48987 1.33325 7.08627 1.33325 6.27917 1.33325Z" stroke="#AA0000" stroke-linejoin="round"/>
<path d="M11.25 8.33341H11.1667M11.3333 8.33341C11.3333 8.42548 11.2587 8.50008 11.1667 8.50008C11.0746 8.50008 11 8.42548 11 8.33341C11 8.24135 11.0746 8.16675 11.1667 8.16675C11.2587 8.16675 11.3333 8.24135 11.3333 8.33341Z" stroke="#AA0000" stroke-linecap="round" stroke-linejoin="round"/>
<path d="M6.25 8.33341H6.16667M6.33333 8.33341C6.33333 8.42548 6.25871 8.50008 6.16667 8.50008C6.07462 8.50008 6 8.42548 6 8.33341C6 8.24135 6.07462 8.16675 6.16667 8.16675C6.25871 8.16675 6.33333 8.24135 6.33333 8.33341Z" stroke="#AA0000" stroke-linecap="round" stroke-linejoin="round"/>
<path d="M4.5 4.33333H4.33333M4.66667 4.33333C4.66667 4.51743 4.51743 4.66667 4.33333 4.66667C4.14924 4.66667 4 4.51743 4 4.33333C4 4.14924 4.14924 4 4.33333 4C4.51743 4 4.66667 4.14924 4.66667 4.33333Z" stroke="#AA0000" stroke-linecap="round" stroke-linejoin="round"/>
</svg>
