<svg width="16" height="16" viewBox="0 0 16 16" fill="none" xmlns="http://www.w3.org/2000/svg">
<path d="M8.00033 7.66659C8.33066 7.66659 8.63779 7.53425 9.25199 7.26959L9.69519 7.07859C10.7875 6.60793 11.3337 6.3726 11.3337 5.99992C11.3337 5.62724 10.7875 5.39191 9.69519 4.92123L9.25199 4.73025C8.63779 4.46559 8.33066 4.33325 8.00033 4.33325C7.66999 4.33325 7.36286 4.46559 6.74866 4.73025L6.30545 4.92123C5.21315 5.39191 4.66699 5.62724 4.66699 5.99992C4.66699 6.3726 5.21315 6.60793 6.30545 7.07859L6.74866 7.26959C7.36286 7.53425 7.66999 7.66659 8.00033 7.66659ZM8.00033 7.66659V11.6666" stroke="#22419E" stroke-linejoin="round"/>
<path d="M11.3337 6V10C11.3337 10.3727 10.7875 10.608 9.69519 11.0787L9.25199 11.2697C8.63779 11.5343 8.33066 11.6667 8.00033 11.6667C7.66999 11.6667 7.36286 11.5343 6.74866 11.2697L6.30545 11.0787C5.21315 10.608 4.66699 10.3727 4.66699 10V6" stroke="#22419E" stroke-linejoin="round"/>
<path d="M6.0965 1.66675C4.32515 1.70725 3.29052 1.87645 2.58361 2.58337C1.8767 3.29027 1.70749 4.32491 1.66699 6.09626M9.90413 1.66675C11.6755 1.70725 12.7101 1.87645 13.4171 2.58337C14.1239 3.29027 14.2931 4.32491 14.3337 6.09626M9.90413 14.3334C11.6755 14.2929 12.7101 14.1237 13.4171 13.4168C14.1239 12.7099 14.2931 11.6753 14.3337 9.90388M6.0965 14.3334C4.32515 14.2929 3.29052 14.1237 2.58361 13.4168C1.8767 12.7099 1.70749 11.6753 1.66699 9.90388" stroke="#22419E" stroke-linecap="round" stroke-linejoin="round"/>
</svg>
