<svg width="30" height="30" viewBox="0 0 30 30" fill="none" xmlns="http://www.w3.org/2000/svg">
<path d="M13.8844 6.9703C14.2115 7.53384 14.375 7.8156 14.375 8.125C14.375 8.4344 14.2115 8.71616 13.8844 9.2797L12.3225 11.9703C11.9954 12.5339 11.8319 12.8156 11.5625 12.9702C11.2931 13.125 10.966 13.125 10.3118 13.125H7.18821C6.534 13.125 6.20689 13.125 5.9375 12.9702C5.66811 12.8156 5.50455 12.5339 5.17745 11.9703L3.61566 9.2797C3.28855 8.71616 3.125 8.4344 3.125 8.125C3.125 7.8156 3.28855 7.53384 3.61566 6.9703L5.17745 4.2797C5.50455 3.71616 5.66811 3.4344 5.9375 3.2797C6.20689 3.125 6.534 3.125 7.18821 3.125H10.3118C10.966 3.125 11.2931 3.125 11.5625 3.2797C11.8319 3.4344 11.9954 3.71616 12.3225 4.2797L13.8844 6.9703Z" stroke="#927C48" stroke-width="1.875" stroke-linecap="round" stroke-linejoin="round"/>
<path d="M26.3844 14.4702C26.7115 15.0339 26.875 15.3156 26.875 15.625C26.875 15.9344 26.7115 16.2161 26.3844 16.7798L24.8225 19.4702C24.4955 20.0339 24.3319 20.3156 24.0625 20.4702C23.7931 20.625 23.466 20.625 22.8117 20.625H19.6882C19.034 20.625 18.7069 20.625 18.4375 20.4702C18.1681 20.3156 18.0045 20.0339 17.6775 19.4702L16.1156 16.7798C15.7885 16.2161 15.625 15.9344 15.625 15.625C15.625 15.3156 15.7885 15.0339 16.1156 14.4702L17.6775 11.7797C18.0045 11.2162 18.1681 10.9344 18.4375 10.7797C18.7069 10.625 19.034 10.625 19.6882 10.625H22.8117C23.466 10.625 23.7931 10.625 24.0625 10.7797C24.3319 10.9344 24.4955 11.2162 24.8225 11.7797L26.3844 14.4702Z" stroke="#927C48" stroke-width="1.875" stroke-linecap="round" stroke-linejoin="round"/>
<path d="M13.8844 20.7203C14.2115 21.2839 14.375 21.5656 14.375 21.875C14.375 22.1844 14.2115 22.4661 13.8844 23.0297L12.3225 25.7203C11.9954 26.2839 11.8319 26.5656 11.5625 26.7202C11.2931 26.875 10.966 26.875 10.3118 26.875H7.18821C6.534 26.875 6.20689 26.875 5.9375 26.7202C5.66811 26.5656 5.50455 26.2839 5.17745 25.7203L3.61566 23.0297C3.28855 22.4661 3.125 22.1844 3.125 21.875C3.125 21.5656 3.28855 21.2839 3.61566 20.7203L5.17745 18.0298C5.50455 17.4661 5.66811 17.1844 5.9375 17.0298C6.20689 16.875 6.534 16.875 7.18821 16.875H10.3118C10.966 16.875 11.2931 16.875 11.5625 17.0298C11.8319 17.1844 11.9954 17.4661 12.3225 18.0298L13.8844 20.7203Z" stroke="#927C48" stroke-width="1.875" stroke-linecap="round" stroke-linejoin="round"/>
</svg>
