<svg width="30" height="30" viewBox="0 0 30 30" fill="none" xmlns="http://www.w3.org/2000/svg">
<path d="M19.375 13.75C19.375 11.3338 17.4162 9.375 15 9.375C12.5838 9.375 10.625 11.3338 10.625 13.75C10.625 16.1662 12.5838 18.125 15 18.125C17.4162 18.125 19.375 16.1662 19.375 13.75Z" stroke="#41A094" stroke-width="1.875" stroke-linecap="round" stroke-linejoin="round"/>
<path d="M19.3532 14.1874C19.7557 14.3094 20.1826 14.375 20.6249 14.375C23.0411 14.375 24.9999 12.4162 24.9999 10C24.9999 7.58375 23.0411 5.625 20.6249 5.625C18.3562 5.625 16.4909 7.35175 16.2715 9.56266" stroke="#41A094" stroke-width="1.875" stroke-linecap="round" stroke-linejoin="round"/>
<path d="M13.7284 9.56266C13.509 7.35175 11.6436 5.625 9.375 5.625C6.95875 5.625 5 7.58375 5 10C5 12.4162 6.95875 14.375 9.375 14.375C9.81726 14.375 10.2442 14.3094 10.6466 14.1874" stroke="#41A094" stroke-width="1.875" stroke-linecap="round" stroke-linejoin="round"/>
<path d="M27.5 20.625C27.5 17.1733 24.422 14.375 20.625 14.375" stroke="#41A094" stroke-width="1.875" stroke-linecap="round" stroke-linejoin="round"/>
<path d="M21.875 24.375C21.875 20.9233 18.797 18.125 15 18.125C11.203 18.125 8.125 20.9233 8.125 24.375" stroke="#41A094" stroke-width="1.875" stroke-linecap="round" stroke-linejoin="round"/>
<path d="M9.375 14.375C5.57804 14.375 2.5 17.1733 2.5 20.625" stroke="#41A094" stroke-width="1.875" stroke-linecap="round" stroke-linejoin="round"/>
</svg>
