<svg preserveAspectRatio="none" width="100%" height="100%" overflow="visible" style="display: block;" viewBox="0 0 30 30" fill="none" xmlns="http://www.w3.org/2000/svg">
<g id="chart-relationship">
<path id="Vector" d="M13.75 6.25H22.5" stroke="var(--stroke-0, #22419E)" stroke-width="1.5" stroke-linecap="round" stroke-linejoin="round"/>
<path id="Vector_2" d="M12.5 12.5L18.125 18.125" stroke="var(--stroke-0, #22419E)" stroke-width="1.5" stroke-linecap="round" stroke-linejoin="round"/>
<path id="Vector_3" d="M6.25 13.75V22.5" stroke="var(--stroke-0, #22419E)" stroke-width="1.5" stroke-linecap="round" stroke-linejoin="round"/>
<path id="Vector_4" d="M8.05555 13.6111C11.1238 13.6111 13.6111 11.1238 13.6111 8.05555C13.6111 4.9873 11.1238 2.5 8.05555 2.5C4.9873 2.5 2.5 4.9873 2.5 8.05555C2.5 11.1238 4.9873 13.6111 8.05555 13.6111Z" stroke="var(--stroke-0, #22419E)" stroke-width="1.5"/>
<path id="Vector_5" d="M6.25 27.5C7.63071 27.5 8.75 26.3807 8.75 25C8.75 23.6193 7.63071 22.5 6.25 22.5C4.86929 22.5 3.75 23.6193 3.75 25C3.75 26.3807 4.86929 27.5 6.25 27.5Z" stroke="var(--stroke-0, #22419E)" stroke-width="1.5"/>
<path id="Vector_6" d="M20 22.5C21.3807 22.5 22.5 21.3807 22.5 20C22.5 18.6193 21.3807 17.5 20 17.5C18.6193 17.5 17.5 18.6193 17.5 20C17.5 21.3807 18.6193 22.5 20 22.5Z" stroke="var(--stroke-0, #22419E)" stroke-width="1.5"/>
<path id="Vector_7" d="M25 8.75C26.3807 8.75 27.5 7.63071 27.5 6.25C27.5 4.86929 26.3807 3.75 25 3.75C23.6193 3.75 22.5 4.86929 22.5 6.25C22.5 7.63071 23.6193 8.75 25 8.75Z" stroke="var(--stroke-0, #22419E)" stroke-width="1.5"/>
</g>
</svg>
