<svg preserveAspectRatio="none" width="100%" height="100%" overflow="visible" style="display: block;" viewBox="0 0 30 30" fill="none" xmlns="http://www.w3.org/2000/svg">
<g id="job-search">
<path id="Vector" d="M13.7581 26.25H12.0068C7.52526 26.25 5.28449 26.25 3.89224 24.8313C2.5 23.4126 2.5 21.1292 2.5 16.5625C2.5 11.9958 2.5 9.7124 3.89224 8.2937C5.28449 6.875 7.52526 6.875 12.0068 6.875H16.7603C21.2418 6.875 23.4826 6.875 24.8749 8.2937C25.946 9.38524 26.193 10.9886 26.25 13.75" stroke="var(--stroke-0, #F57727)" stroke-width="1.875" stroke-linecap="round"/>
<path id="Vector_2" d="M25.0209 25.0291L27.4997 27.5M26.316 21.9081C26.316 19.4736 24.3424 17.5 21.9079 17.5C19.4732 17.5 17.4997 19.4736 17.4997 21.9081C17.4997 24.3428 19.4732 26.3164 21.9079 26.3164C24.3424 26.3164 26.316 24.3428 26.316 21.9081Z" stroke="var(--stroke-0, #F57727)" stroke-width="1.875" stroke-linecap="round" stroke-linejoin="round"/>
<path id="Vector_3" d="M19.9997 6.875L19.8755 6.48867C19.2567 4.56361 18.9474 3.60109 18.2107 3.05054C17.4742 2.5 16.4959 2.5 14.5391 2.5H14.2102C12.2535 2.5 11.2751 2.5 10.5386 3.05054C9.80202 3.60109 9.49263 4.56361 8.87387 6.48867L8.74969 6.875" stroke="var(--stroke-0, #F57727)" stroke-width="1.875"/>
</g>
</svg>
