<svg preserveAspectRatio="none" width="100%" height="100%" overflow="visible" style="display: block;" viewBox="0 0 30 30" fill="none" xmlns="http://www.w3.org/2000/svg">
<g id="structure-02">
<path id="Vector" d="M2.5 16.25C2.5 15.0715 2.5 14.4823 2.86611 14.1161C3.23224 13.75 3.82149 13.75 5 13.75C6.17851 13.75 6.76776 13.75 7.13389 14.1161C7.5 14.4823 7.5 15.0715 7.5 16.25C7.5 17.4285 7.5 18.0177 7.13389 18.3839C6.76776 18.75 6.17851 18.75 5 18.75C3.82149 18.75 3.23224 18.75 2.86611 18.3839C2.5 18.0177 2.5 17.4285 2.5 16.25Z" stroke="var(--stroke-0, #41A094)" stroke-width="1.5"/>
<path id="Vector_2" d="M22.5 16.25C22.5 15.0715 22.5 14.4823 22.8661 14.1161C23.2323 13.75 23.8215 13.75 25 13.75C26.1785 13.75 26.7677 13.75 27.1339 14.1161C27.5 14.4823 27.5 15.0715 27.5 16.25C27.5 17.4285 27.5 18.0177 27.1339 18.3839C26.7677 18.75 26.1785 18.75 25 18.75C23.8215 18.75 23.2323 18.75 22.8661 18.3839C22.5 18.0177 22.5 17.4285 22.5 16.25Z" stroke="var(--stroke-0, #41A094)" stroke-width="1.5"/>
<path id="Vector_3" d="M15 8.74986V17.4999M15 23.7499V27.4999M5 13.75V11.25C5 7.11334 5.86334 6.25 10 6.25M25 13.75V11.25C25 7.11334 24.1366 6.25 20 6.25" stroke="var(--stroke-0, #41A094)" stroke-width="1.5" stroke-linecap="round" stroke-linejoin="round"/>
<path id="Vector_4" d="M18.125 20.625C18.125 22.3509 16.7259 23.75 15 23.75C13.2741 23.75 11.875 22.3509 11.875 20.625C11.875 18.8991 13.2741 17.5 15 17.5C16.7259 17.5 18.125 18.8991 18.125 20.625Z" stroke="var(--stroke-0, #41A094)" stroke-width="1.5"/>
<path id="Vector_5" d="M12.5 2.5H17.5C19.769 2.5 20 3.65617 20 5.625C20 7.59383 19.769 8.75 17.5 8.75H12.5C10.231 8.75 10 7.59383 10 5.625C10 3.65617 10.231 2.5 12.5 2.5Z" stroke="var(--stroke-0, #41A094)" stroke-width="1.5"/>
</g>
</svg>
