<svg width="30" height="30" viewBox="0 0 30 30" fill="none" xmlns="http://www.w3.org/2000/svg">
<path d="M20 12.5L21.5331 13.8215C22.1777 14.377 22.5 14.6549 22.5 15C22.5 15.3451 22.1777 15.623 21.5331 16.1785L20 17.5" stroke="#AE541C" stroke-width="1.5" stroke-linecap="round" stroke-linejoin="round"/>
<path d="M10 12.5L8.46682 13.8215C7.82227 14.377 7.5 14.6549 7.5 15C7.5 15.3451 7.82227 15.623 8.46682 16.1785L10 17.5" stroke="#AE541C" stroke-width="1.5" stroke-linecap="round" stroke-linejoin="round"/>
<path d="M16.25 11.25L13.75 18.75" stroke="#AE541C" stroke-width="1.5" stroke-linecap="round" stroke-linejoin="round"/>
<path d="M3.125 15C3.125 9.40207 3.125 6.60311 4.86405 4.86405C6.60311 3.125 9.40207 3.125 15 3.125C20.5979 3.125 23.3969 3.125 25.136 4.86405C26.875 6.60311 26.875 9.40207 26.875 15C26.875 20.5979 26.875 23.3969 25.136 25.136C23.3969 26.875 20.5979 26.875 15 26.875C9.40207 26.875 6.60311 26.875 4.86405 25.136C3.125 23.3969 3.125 20.5979 3.125 15Z" stroke="#AE541C" stroke-width="1.5"/>
</svg>
