<svg width="18" height="18" viewBox="0 0 18 18" fill="none" xmlns="http://www.w3.org/2000/svg">
<path fill-rule="evenodd" clip-rule="evenodd" d="M4.63636 7.74997C3.90304 7.74997 3.75 7.8939 3.75 8.5833V9.83333C3.75 10.5228 3.90304 10.6667 4.63636 10.6667H6.40909V15.6667C6.40909 16.3561 6.56213 16.5 7.29545 16.5H9.06818C9.80153 16.5 9.95453 16.3561 9.95453 15.6667V10.6667H11.945C12.5012 10.6667 12.6446 10.565 12.7973 10.0623L13.1772 8.81227C13.4389 7.95105 13.2776 7.74997 12.3249 7.74997H9.95453V5.66667C9.95453 5.20643 10.3514 4.83333 10.8409 4.83333H13.3636C14.0969 4.83333 14.25 4.68944 14.25 4V2.33333C14.25 1.64389 14.0969 1.5 13.3636 1.5H10.8409C8.39325 1.5 6.40909 3.36548 6.40909 5.66667V7.74997H4.63636Z" stroke="white" stroke-width="1.125" stroke-linejoin="round"/>
</svg>
