<svg width="18" height="18" viewBox="0 0 18 18" fill="none" xmlns="http://www.w3.org/2000/svg">
<path d="M3.375 7.125H3C2.29289 7.125 1.93934 7.125 1.71967 7.34467C1.5 7.56435 1.5 7.9179 1.5 8.625V15C1.5 15.7071 1.5 16.0606 1.71967 16.2803C1.93934 16.5 2.29289 16.5 3 16.5H3.375C4.08211 16.5 4.43566 16.5 4.65533 16.2803C4.875 16.0606 4.875 15.7071 4.875 15V8.625C4.875 7.9179 4.875 7.56435 4.65533 7.34467C4.43566 7.125 4.08211 7.125 3.375 7.125Z" stroke="white" stroke-width="1.125"/>
<path d="M4.875 3.1875C4.875 4.11948 4.11948 4.875 3.1875 4.875C2.25552 4.875 1.5 4.11948 1.5 3.1875C1.5 2.25552 2.25552 1.5 3.1875 1.5C4.11948 1.5 4.875 2.25552 4.875 3.1875Z" stroke="white" stroke-width="1.125"/>
<path d="M9.2445 7.125H8.625C7.9179 7.125 7.56435 7.125 7.34467 7.34467C7.125 7.56435 7.125 7.9179 7.125 8.625V15C7.125 15.7071 7.125 16.0606 7.34467 16.2803C7.56435 16.5 7.9179 16.5 8.625 16.5H9C9.7071 16.5 10.0606 16.5 10.2803 16.2803C10.5 16.0606 10.5 15.7071 10.5 15L10.5001 12.3751C10.5001 11.1325 10.8961 10.1251 12.0659 10.1251C12.6508 10.1251 13.125 10.6288 13.125 11.2501V14.6251C13.125 15.3322 13.125 15.6857 13.3447 15.9054C13.5643 16.1251 13.9179 16.1251 14.625 16.1251H14.999C15.706 16.1251 16.0594 16.1251 16.2791 15.9055C16.4988 15.6859 16.4989 15.3324 16.499 14.6255L16.5001 10.5002C16.5001 8.63625 14.7273 7.12518 12.9726 7.12518C11.9737 7.12518 11.0825 7.61482 10.5001 8.3805C10.5 7.90792 10.5 7.67167 10.3974 7.49625C10.3324 7.38514 10.2398 7.29265 10.1288 7.22765C9.95333 7.125 9.71708 7.125 9.2445 7.125Z" stroke="white" stroke-width="1.125" stroke-linejoin="round"/>
</svg>
