<svg width="18" height="18" viewBox="0 0 18 18" fill="none" xmlns="http://www.w3.org/2000/svg">
<path d="M9 15.375C10.3573 15.375 11.6588 15.2409 12.8651 14.9951C14.3717 14.6879 15.1251 14.5343 15.8126 13.6504C16.5 12.7666 16.5 11.752 16.5 9.72263V8.27737C16.5 6.24805 16.5 5.2334 15.8126 4.34953C15.1251 3.46566 14.3717 3.3121 12.8651 3.00496C11.6588 2.75908 10.3573 2.625 9 2.625C7.64272 2.625 6.34117 2.75908 5.13492 3.00496C3.62825 3.3121 2.87491 3.46566 2.18745 4.34953C1.5 5.2334 1.5 6.24805 1.5 8.27737V9.72263C1.5 11.752 1.5 12.7666 2.18745 13.6504C2.87491 14.5343 3.62825 14.6879 5.13492 14.9951C6.34117 15.2409 7.64272 15.375 9 15.375Z" stroke="white" stroke-width="1.125"/>
<path d="M11.9716 9.23467C11.8603 9.68902 11.2681 10.0153 10.0837 10.6681C8.7954 11.3779 8.1513 11.7328 7.6296 11.5961C7.4529 11.5498 7.29015 11.4683 7.15349 11.3578C6.75 11.0317 6.75 10.3544 6.75 9C6.75 7.64557 6.75 6.96834 7.15349 6.64213C7.29015 6.53164 7.4529 6.45022 7.6296 6.4039C8.1513 6.26716 8.7954 6.62209 10.0837 7.33195C11.2681 7.98465 11.8603 8.31097 11.9716 8.76532C12.0095 8.91997 12.0095 9.08002 11.9716 9.23467Z" stroke="white" stroke-width="1.125" stroke-linejoin="round"/>
</svg>
