<svg preserveAspectRatio="none" width="100%" height="100%" overflow="visible" style="display: block;" viewBox="0 0 30 30" fill="none" xmlns="http://www.w3.org/2000/svg">
<g id="new-office">
<path id="Vector" d="M7.63871 16.5689C7.8695 16.3563 7.9849 16.25 8.125 16.25C8.2651 16.25 8.3805 16.3563 8.61129 16.5689L9.50211 17.3896C9.60973 17.4888 9.66355 17.5384 9.7304 17.5629C9.79723 17.5875 9.87036 17.5846 10.0166 17.5789L11.2202 17.5316C11.5301 17.5194 11.6851 17.5134 11.7913 17.6026C11.8976 17.6919 11.9183 17.8456 11.9597 18.153L12.1255 19.3846C12.1446 19.527 12.1542 19.5981 12.1889 19.6589C12.2236 19.7196 12.28 19.764 12.3928 19.8529L13.3622 20.616C13.6021 20.8049 13.7221 20.8993 13.7459 21.0343C13.7696 21.1693 13.6891 21.2989 13.5281 21.5584L12.8706 22.6179C12.7954 22.7391 12.7579 22.7997 12.7459 22.8682C12.7339 22.9366 12.7487 23.0065 12.7785 23.146L13.0394 24.369C13.1034 24.6695 13.1355 24.8197 13.0666 24.9391C12.9979 25.0584 12.8517 25.106 12.5596 25.2011L11.4025 25.578C11.2646 25.6229 11.1956 25.6454 11.1418 25.691C11.0879 25.7367 11.0545 25.8011 10.9877 25.9299L10.4225 27.0193C10.2784 27.2969 10.2064 27.4356 10.0751 27.4835C9.94384 27.5314 9.79937 27.4715 9.51047 27.3516L8.39995 26.891C8.26429 26.8348 8.19646 26.8066 8.125 26.8066C8.05354 26.8066 7.98571 26.8348 7.85005 26.891L6.73952 27.3516C6.45062 27.4715 6.30617 27.5314 6.17489 27.4835C6.0436 27.4356 5.97157 27.2969 5.82752 27.0193L5.26229 25.9299C5.19549 25.8011 5.16209 25.7367 5.10824 25.691C5.05437 25.6454 4.98541 25.6229 4.8475 25.578L3.69032 25.2011C3.3982 25.106 3.25214 25.0584 3.18335 24.9391C3.11456 24.8197 3.14659 24.6695 3.21066 24.369L3.47145 23.146C3.5012 23.0065 3.51607 22.9366 3.50414 22.8682C3.49219 22.7997 3.45457 22.7391 3.37935 22.6179L2.72182 21.5584C2.56084 21.2989 2.48034 21.1693 2.5041 21.0343C2.52786 20.8993 2.64781 20.8049 2.88772 20.616L3.85716 19.8529C3.97 19.764 4.02641 19.7196 4.0611 19.6589C4.0958 19.5981 4.10537 19.527 4.12452 19.3846L4.29032 18.153C4.3317 17.8456 4.35239 17.6919 4.45866 17.6026C4.56492 17.5134 4.71987 17.5194 5.0298 17.5316L6.23341 17.5789C6.37964 17.5846 6.45276 17.5875 6.5196 17.5629C6.58645 17.5384 6.64026 17.4888 6.74789 17.3896L7.63871 16.5689Z" stroke="var(--stroke-0, #927C48)" stroke-width="1.5"/>
<path id="Vector_2" d="M8.125 11.25H6.875M13.125 11.25H11.875M8.125 7.5H6.875M13.125 7.5H11.875" stroke="var(--stroke-0, #927C48)" stroke-width="1.5" stroke-linecap="round"/>
<path id="Vector_3" d="M23.125 18.75H21.875M23.125 13.75H21.875" stroke="var(--stroke-0, #927C48)" stroke-width="1.5" stroke-linecap="round"/>
<path id="Vector_4" d="M17.5 10V27.5H22.5C24.857 27.5 26.0355 27.5 26.7677 26.7677C27.5 26.0355 27.5 24.857 27.5 22.5V15C27.5 12.643 27.5 11.4645 26.7677 10.7322C26.0355 10 24.857 10 22.5 10H17.5ZM17.5 10C17.5 6.46446 17.5 4.6967 16.4016 3.59835C15.3032 2.5 13.5355 2.5 10 2.5C6.46446 2.5 4.6967 2.5 3.59835 3.59835C2.5 4.6967 2.5 6.46446 2.5 10V13.75" stroke="var(--stroke-0, #927C48)" stroke-width="1.5" stroke-linecap="round" stroke-linejoin="round"/>
</g>
</svg>
