<svg preserveAspectRatio="none" width="100%" height="100%" overflow="visible" style="display: block;" viewBox="0 0 1269 237" fill="none" xmlns="http://www.w3.org/2000/svg">
<g id="Frame 2085663636">
<g id="Ellipse 6" filter="url(#filter0_di_748_4674)">
<circle cx="634.5" cy="98" r="40" fill="var(--fill-0, #0066FF)"/>
<circle cx="634.5" cy="98" r="38.5" stroke="var(--stroke-0, white)" stroke-width="3"/>
</g>
<g id="Vector">
<path d="M644 140V237H628V140L644 140Z" fill="url(#paint0_linear_748_4674)"/>
<path d="M337 177V237H321V177H337Z" fill="url(#paint1_linear_748_4674)"/>
<path d="M949 177V237H933V177H949Z" fill="url(#paint2_linear_748_4674)"/>
<path d="M1253 204C1253 191.85 1243.15 182 1231 182H38C25.8497 182 16 191.85 16 204V237H0V204C0 183.013 17.0132 166 38 166H1231C1251.99 166 1269 183.013 1269 204V237H1253V204Z" fill="url(#paint3_linear_748_4674)"/>
</g>
</g>
<defs>
<filter id="filter0_di_748_4674" x="536.5" y="0" width="196" height="196" filterUnits="userSpaceOnUse" color-interpolation-filters="sRGB">
<feFlood flood-opacity="0" result="BackgroundImageFix"/>
<feColorMatrix in="SourceAlpha" type="matrix" values="0 0 0 0 0 0 0 0 0 0 0 0 0 0 0 0 0 0 127 0" result="hardAlpha"/>
<feOffset/>
<feGaussianBlur stdDeviation="29"/>
<feComposite in2="hardAlpha" operator="out"/>
<feColorMatrix type="matrix" values="0 0 0 0 0.264423 0 0 0 0 0.264423 0 0 0 0 0.264423 0 0 0 0.3 0"/>
<feBlend mode="normal" in2="BackgroundImageFix" result="effect1_dropShadow_748_4674"/>
<feBlend mode="normal" in="SourceGraphic" in2="effect1_dropShadow_748_4674" result="shape"/>
<feColorMatrix in="SourceAlpha" type="matrix" values="0 0 0 0 0 0 0 0 0 0 0 0 0 0 0 0 0 0 127 0" result="hardAlpha"/>
<feOffset dx="2" dy="2"/>
<feGaussianBlur stdDeviation="7"/>
<feComposite in2="hardAlpha" operator="arithmetic" k2="-1" k3="1"/>
<feColorMatrix type="matrix" values="0 0 0 0 1 0 0 0 0 1 0 0 0 0 1 0 0 0 1 0"/>
<feBlend mode="normal" in2="shape" result="effect2_innerShadow_748_4674"/>
</filter>
<linearGradient id="paint0_linear_748_4674" x1="636.5" y1="47.9743" x2="636.5" y2="237" gradientUnits="userSpaceOnUse">
<stop stop-color="#A9A9A9"/>
<stop offset="1" stop-color="#F6F6F6"/>
</linearGradient>
<linearGradient id="paint1_linear_748_4674" x1="941.5" y1="120.077" x2="941.5" y2="237" gradientUnits="userSpaceOnUse">
<stop stop-color="#A9A9A9"/>
<stop offset="1" stop-color="#F6F6F6"/>
</linearGradient>
<linearGradient id="paint2_linear_748_4674" x1="941.5" y1="120.077" x2="941.5" y2="237" gradientUnits="userSpaceOnUse">
<stop stop-color="#A9A9A9"/>
<stop offset="1" stop-color="#F6F6F6"/>
</linearGradient>
<linearGradient id="paint3_linear_748_4674" x1="635" y1="137" x2="635" y2="237" gradientUnits="userSpaceOnUse">
<stop stop-color="#A9A9A9"/>
<stop offset="1" stop-color="#F6F6F6"/>
</linearGradient>
</defs>
</svg>
