<svg width="16" height="16" viewBox="0 0 16 16" fill="none" xmlns="http://www.w3.org/2000/svg">
<path d="M10.3333 4.33333C10.3333 5.622 9.28863 6.66667 7.99996 6.66667C6.71129 6.66667 5.66663 5.622 5.66663 4.33333C5.66663 3.04467 6.71129 2 7.99996 2C9.28863 2 10.3333 3.04467 10.3333 4.33333Z" stroke="#F57727" stroke-width="1.5"/>
<path d="M14.6667 11.6666C14.6667 12.9553 13.622 13.9999 12.3333 13.9999C11.0447 13.9999 10 12.9553 10 11.6666C10 10.3779 11.0447 9.33325 12.3333 9.33325C13.622 9.33325 14.6667 10.3779 14.6667 11.6666Z" stroke="#F57727" stroke-width="1.5"/>
<path d="M6.00004 11.6666C6.00004 12.9553 4.95537 13.9999 3.66671 13.9999C2.37804 13.9999 1.33337 12.9553 1.33337 11.6666C1.33337 10.3779 2.37804 9.33325 3.66671 9.33325C4.95537 9.33325 6.00004 10.3779 6.00004 11.6666Z" stroke="#F57727" stroke-width="1.5"/>
</svg>
