<svg width="30" height="30" viewBox="0 0 30 30" fill="none" xmlns="http://www.w3.org/2000/svg">
<path d="M15 23.75V27.5" stroke="#676767" stroke-width="1.875" stroke-linecap="round" stroke-linejoin="round"/>
<path d="M15 12.5V17.5" stroke="#676767" stroke-width="1.875" stroke-linecap="round" stroke-linejoin="round"/>
<path d="M15 2.5V6.25" stroke="#676767" stroke-width="1.875" stroke-linecap="round" stroke-linejoin="round"/>
<path d="M10.0009 9.375C10.0009 8.32014 9.89673 7.10264 10.9384 6.5012C11.3735 6.25 11.9577 6.25 13.126 6.25H16.876C18.0442 6.25 18.6284 6.25 19.0635 6.5012C20.1051 7.10264 20.001 8.32014 20.001 9.375C20.001 10.4299 20.1051 11.6474 19.0635 12.2488C18.6284 12.5 18.0442 12.5 16.876 12.5H13.126C11.9577 12.5 11.3735 12.5 10.9384 12.2488C9.89673 11.6474 10.0009 10.4299 10.0009 9.375Z" stroke="#676767" stroke-width="1.875" stroke-linecap="round" stroke-linejoin="round"/>
<path d="M5.00094 20.625C5.00094 19.5701 4.89673 18.3526 5.93844 17.7513C6.37354 17.5 6.95768 17.5 8.12594 17.5H21.876C23.0442 17.5 23.6284 17.5 24.0635 17.7513C25.1051 18.3526 25.001 19.5701 25.001 20.625C25.001 21.6799 25.1051 22.8974 24.0635 23.4987C23.6284 23.75 23.0442 23.75 21.876 23.75H8.12594C6.95768 23.75 6.37354 23.75 5.93844 23.4987C4.89673 22.8974 5.00094 21.6799 5.00094 20.625Z" stroke="#676767" stroke-width="1.875" stroke-linecap="round" stroke-linejoin="round"/>
</svg>
