<svg width="30" height="30" viewBox="0 0 30 30" fill="none" xmlns="http://www.w3.org/2000/svg">
<path d="M3.75 2.5V27.5" stroke="#676767" stroke-width="1.875" stroke-linecap="round" stroke-linejoin="round"/>
<path d="M8.75 9.375V20.6212C8.75 21.2021 8.75 21.4925 8.79804 21.734C8.9953 22.7257 9.77055 23.501 10.7623 23.6982C11.0038 23.7462 11.2942 23.7462 11.875 23.7462C12.4558 23.7462 12.7462 23.7462 12.9877 23.6982C13.9795 23.501 14.7548 22.7257 14.952 21.734C15 21.4925 15 21.2021 15 20.6212V9.375C15 8.79418 15 8.50377 14.952 8.26227C14.7548 7.27055 13.9795 6.4953 12.9877 6.29804C12.7462 6.25 12.4558 6.25 11.875 6.25C11.2942 6.25 11.0038 6.25 10.7623 6.29804C9.77055 6.4953 8.9953 7.27055 8.79804 8.26227C8.75 8.50377 8.75 8.79418 8.75 9.375Z" stroke="#676767" stroke-width="1.875" stroke-linecap="round" stroke-linejoin="round"/>
<path d="M20 13.125V16.8713C20 17.4521 20 17.7425 20.048 17.984C20.2453 18.9758 21.0205 19.751 22.0123 19.9483C22.2538 19.9963 22.5441 19.9963 23.125 19.9963C23.7059 19.9963 23.9962 19.9963 24.2377 19.9483C25.2295 19.751 26.0047 18.9758 26.202 17.984C26.25 17.7425 26.25 17.4521 26.25 16.8713V13.125C26.25 12.5441 26.25 12.2538 26.202 12.0123C26.0047 11.0206 25.2295 10.2453 24.2377 10.048C23.9962 10 23.7059 10 23.125 10C22.5441 10 22.2538 10 22.0123 10.048C21.0205 10.2453 20.2453 11.0206 20.048 12.0123C20 12.2538 20 12.5441 20 13.125Z" stroke="#676767" stroke-width="1.875" stroke-linecap="round" stroke-linejoin="round"/>
</svg>
