<svg width="30" height="30" viewBox="0 0 30 30" fill="none" xmlns="http://www.w3.org/2000/svg">
<path d="M26.25 2.5V27.5" stroke="#676767" stroke-width="1.875" stroke-linecap="round" stroke-linejoin="round"/>
<path d="M21.25 9.375V20.6212C21.25 21.2021 21.25 21.4925 21.202 21.734C21.0047 22.7257 20.2295 23.501 19.2377 23.6982C18.9962 23.7462 18.7059 23.7462 18.125 23.7462C17.5441 23.7462 17.2538 23.7462 17.0123 23.6982C16.0205 23.501 15.2452 22.7257 15.048 21.734C15 21.4925 15 21.2021 15 20.6212V9.375C15 8.79418 15 8.50377 15.048 8.26227C15.2452 7.27055 16.0205 6.4953 17.0123 6.29804C17.2538 6.25 17.5441 6.25 18.125 6.25C18.7059 6.25 18.9962 6.25 19.2377 6.29804C20.2295 6.4953 21.0047 7.27055 21.202 8.26227C21.25 8.50377 21.25 8.79418 21.25 9.375Z" stroke="#676767" stroke-width="1.875" stroke-linecap="round" stroke-linejoin="round"/>
<path d="M10 13.125V16.8713C10 17.4521 10 17.7425 9.95196 17.984C9.7547 18.9758 8.97945 19.751 7.98773 19.9483C7.74623 19.9963 7.45582 19.9963 6.875 19.9963C6.29418 19.9963 6.00377 19.9963 5.76227 19.9483C4.77055 19.751 3.9953 18.9758 3.79804 17.984C3.75 17.7425 3.75 17.4521 3.75 16.8713V13.125C3.75 12.5441 3.75 12.2538 3.79804 12.0123C3.9953 11.0206 4.77055 10.2453 5.76227 10.048C6.00377 10 6.29418 10 6.875 10C7.45582 10 7.74623 10 7.98773 10.048C8.97945 10.2453 9.7547 11.0206 9.95196 12.0123C10 12.2538 10 12.5441 10 13.125Z" stroke="#676767" stroke-width="1.875" stroke-linecap="round" stroke-linejoin="round"/>
</svg>
