<svg width="30" height="30" viewBox="0 0 30 30" fill="none" xmlns="http://www.w3.org/2000/svg">
<path d="M24.6874 13.75V12.5C24.6874 7.78595 24.6874 5.42894 23.2229 3.96446C21.7584 2.5 19.4014 2.5 14.6875 2.5H13.4376C8.72354 2.5 6.36654 2.5 4.90208 3.96445C3.43761 5.4289 3.43759 7.7859 3.43755 12.4999L3.4375 17.5C3.43746 22.214 3.43745 24.571 4.90186 26.0355C6.36633 27.4999 8.72343 27.5 13.4374 27.5" stroke="#676767" stroke-width="1.5"/>
<path d="M9.0625 8.75H19.0625M9.0625 15H19.0625" stroke="#676767" stroke-width="1.5"/>
<path d="M16.5625 26.0335V27.5H18.0292C18.541 27.5 18.7969 27.5 19.0269 27.4047C19.257 27.3094 19.4379 27.1285 19.7997 26.7668L25.8293 20.7367C26.1705 20.3955 26.3411 20.2249 26.4324 20.0409C26.606 19.6906 26.606 19.2795 26.4324 18.9292C26.3411 18.7451 26.1705 18.5745 25.8293 18.2333C25.4879 17.892 25.3173 17.7214 25.1331 17.6301C24.7829 17.4566 24.3716 17.4566 24.0214 17.6301C23.8374 17.7214 23.6666 17.892 23.3254 18.2333L17.2959 24.2633C16.9341 24.625 16.7531 24.8059 16.6579 25.0359C16.5625 25.266 16.5625 25.5217 16.5625 26.0335Z" stroke="#676767" stroke-width="1.5"/>
</svg>
