<svg width="30" height="30" viewBox="0 0 30 30" fill="none" xmlns="http://www.w3.org/2000/svg">
<path d="M23.125 21.875L26.25 25M23.75 18.75C23.75 20.8211 22.0711 22.5 20 22.5C17.9289 22.5 16.25 20.8211 16.25 18.75C16.25 16.6789 17.9289 15 20 15C22.0711 15 23.75 16.6789 23.75 18.75Z" stroke="#676767" stroke-width="1.5"/>
<path d="M21.25 27.5H6.25C4.86929 27.5 3.75 26.3807 3.75 25M3.75 25C3.75 23.6193 4.86929 22.5 6.25 22.5H12.5M3.75 25V10C3.75 6.46446 3.75 4.6967 4.84835 3.59835C5.9467 2.5 7.71446 2.5 11.25 2.5H18.75C21.107 2.5 22.2855 2.5 23.0177 3.23224C23.75 3.96446 23.75 5.14298 23.75 7.5V11.25" stroke="#676767" stroke-width="1.5"/>
</svg>
