<svg width="30" height="30" viewBox="0 0 30 30" fill="none" xmlns="http://www.w3.org/2000/svg">
<path d="M15 25.625C23.916 25.625 27.5 20.5883 27.5 14.375C27.5 8.1618 25.166 3.125 15 3.125C5.16601 3.125 2.5 8.1618 2.5 14.375C2.5 16.964 2.96292 19.3489 4.21451 21.25C5.79101 23.75 4.99066 26.0416 3.75 26.875C5.76934 26.875 7.12764 26.2323 7.99049 25.5958C8.60315 25.1438 9.3836 24.9205 10.123 25.1019C11.5086 25.4416 13.1239 25.625 15 25.625Z" stroke="#676767" stroke-width="1.5"/>
<path d="M12.5 11.25C12.5 9.86929 13.6193 8.75 15 8.75C16.3807 8.75 17.5 9.86929 17.5 11.25C17.5 11.9722 17.1938 12.6229 16.704 13.0792C15.9465 13.7852 15 14.5895 15 15.625M15.1562 19.6875H15M15.3125 19.6875C15.3125 19.8601 15.1726 20 15 20C14.8274 20 14.6875 19.8601 14.6875 19.6875C14.6875 19.5149 14.8274 19.375 15 19.375C15.1726 19.375 15.3125 19.5149 15.3125 19.6875Z" stroke="#676767" stroke-width="1.5"/>
</svg>
