<svg width="30" height="30" viewBox="0 0 30 30" fill="none" xmlns="http://www.w3.org/2000/svg">
<path d="M15 16.25L21.25 21.875M15 16.25L8.75 21.875M15 16.25V10" stroke="#008000" stroke-width="1.875"/>
<path d="M22.7394 20.557C23.3851 20.1856 23.708 20 24.0625 20C24.417 20 24.7399 20.1856 25.3856 20.557L26.1769 21.0121C26.8226 21.3835 27.1455 21.5691 27.3228 21.875C27.5 22.1809 27.5 22.5523 27.5 23.2949V24.2051C27.5 24.9477 27.5 25.3191 27.3228 25.625C27.1455 25.9309 26.8226 26.1165 26.1769 26.4879L25.3856 26.943C24.7399 27.3144 24.417 27.5 24.0625 27.5C23.708 27.5 23.3851 27.3144 22.7394 26.943L21.9481 26.4879C21.3024 26.1165 20.9795 25.9309 20.8022 25.625C20.625 25.3191 20.625 24.9477 20.625 24.2051V23.2949C20.625 22.5523 20.625 22.1809 20.8022 21.875C20.9795 21.5691 21.3024 21.3835 21.9481 21.0121L22.7394 20.557Z" stroke="#008000" stroke-width="1.875"/>
<path d="M4.6144 20.557C5.26012 20.1856 5.58298 20 5.9375 20C6.29202 20 6.61487 20.1856 7.2606 20.557L8.0519 21.0121C8.69763 21.3835 9.02048 21.5691 9.19774 21.875C9.375 22.1809 9.375 22.5523 9.375 23.2949V24.2051C9.375 24.9477 9.375 25.3191 9.19774 25.625C9.02048 25.9309 8.69763 26.1165 8.0519 26.4879L7.2606 26.943C6.61487 27.3144 6.29202 27.5 5.9375 27.5C5.58298 27.5 5.26012 27.3144 4.6144 26.943L3.8231 26.4879C3.17738 26.1165 2.85452 25.9309 2.67726 25.625C2.5 25.3191 2.5 24.9477 2.5 24.2051V23.2949C2.5 22.5523 2.5 22.1809 2.67726 21.875C2.85452 21.5691 3.17738 21.3835 3.8231 21.0121L4.6144 20.557Z" stroke="#008000" stroke-width="1.875"/>
<path d="M13.6769 3.05704C14.3226 2.68568 14.6455 2.5 15 2.5C15.3545 2.5 15.6774 2.68568 16.3231 3.05704L17.1144 3.51213C17.7601 3.88349 18.083 4.06916 18.2603 4.375C18.4375 4.68084 18.4375 5.05219 18.4375 5.79491V6.70509C18.4375 7.44781 18.4375 7.81916 18.2603 8.125C18.083 8.43084 17.7601 8.61651 17.1144 8.98787L16.3231 9.44296C15.6774 9.81432 15.3545 10 15 10C14.6455 10 14.3226 9.81432 13.6769 9.44296L12.8856 8.98787C12.2399 8.61651 11.917 8.43084 11.7398 8.125C11.5625 7.81916 11.5625 7.44781 11.5625 6.70509V5.79491C11.5625 5.05219 11.5625 4.68084 11.7398 4.375C11.917 4.06916 12.2399 3.88349 12.8856 3.51213L13.6769 3.05704Z" stroke="#008000" stroke-width="1.875"/>
</svg>
