<svg width="16" height="16" viewBox="0 0 16 16" fill="none" xmlns="http://www.w3.org/2000/svg">
<path d="M14.6666 4.50033H12.8073C12.4066 4.50033 12.2062 4.50033 12.0173 4.44311C11.8283 4.38591 11.6616 4.27476 11.3281 4.05246C10.828 3.71901 10.2574 3.33863 9.97392 3.25281C9.69052 3.16699 9.38992 3.16699 8.78878 3.16699C7.97132 3.16699 7.44439 3.16699 7.07685 3.31923C6.70932 3.47147 6.42029 3.76051 5.84223 4.33857L5.33351 4.84729C5.20324 4.97756 5.1381 5.0427 5.09788 5.10701C4.94882 5.3454 4.96534 5.65169 5.13918 5.87267C5.18608 5.93228 5.25784 5.99003 5.40137 6.10554C5.93189 6.53249 6.69672 6.48987 7.17712 6.00661L7.99992 5.1789H8.66658L12.6666 9.20271C13.0348 9.5731 13.0348 10.1736 12.6666 10.544C12.2984 10.9144 11.7015 10.9144 11.3333 10.544L10.9999 10.2086M10.9999 10.2086L8.99992 8.19677M10.9999 10.2086C11.3681 10.579 11.3681 11.1796 10.9999 11.5499C10.6317 11.9203 10.0348 11.9203 9.66658 11.5499L8.99992 10.8793M8.99992 10.8793C9.36812 11.2496 9.36812 11.8502 8.99992 12.2206C8.63172 12.5909 8.03478 12.5909 7.66658 12.2206L6.66658 11.2146M8.99992 10.8793L7.66658 9.54597M6.66658 11.2146L6.33325 10.8793M6.66658 11.2146C7.03478 11.585 7.03478 12.1855 6.66658 12.5559C6.2984 12.9262 5.70145 12.9262 5.33325 12.5559L3.45083 10.6342C3.06402 10.2394 2.87061 10.042 2.62282 9.93777C2.37503 9.83364 2.09864 9.83364 1.54588 9.83364H1.33325" stroke="#716038" stroke-linecap="round" stroke-linejoin="round"/>
<path d="M14.6667 9.83301H13" stroke="#716038" stroke-linecap="round"/>
<path d="M5.66671 4.5H1.33337" stroke="#716038" stroke-linecap="round"/>
</svg>
