<svg width="30" height="30" viewBox="0 0 30 30" fill="none" xmlns="http://www.w3.org/2000/svg">
<path d="M12.5 8.75L11.8552 10.4926C11.0097 12.7775 10.5869 13.92 9.75348 14.7535C8.92004 15.5869 7.77755 16.0096 5.49256 16.8552L3.75 17.5L5.49256 18.1448C7.77755 18.9904 8.92004 19.4131 9.75348 20.2465C10.5869 21.08 11.0097 22.2225 11.8552 24.5074L12.5 26.25L13.1448 24.5074C13.9904 22.2225 14.4131 21.08 15.2465 20.2465C16.08 19.4131 17.2225 18.9904 19.5074 18.1448L21.25 17.5L19.5074 16.8552C17.2225 16.0096 16.08 15.5869 15.2465 14.7535C14.4131 13.92 13.9904 12.7775 13.1448 10.4926L12.5 8.75Z" stroke="#676767" stroke-width="1.875" stroke-linejoin="round"/>
<path d="M22.5 3.75L22.2236 4.49681C21.8613 5.47609 21.6801 5.96574 21.3229 6.32291C20.9658 6.6801 20.4761 6.86129 19.4969 7.22365L18.75 7.5L19.4969 7.77635C20.4761 8.13871 20.9658 8.3199 21.3229 8.67709C21.6801 9.03426 21.8613 9.52391 22.2236 10.5032L22.5 11.25L22.7764 10.5032C23.1387 9.52391 23.3199 9.03426 23.6771 8.67707C24.0342 8.3199 24.5239 8.13871 25.5031 7.77635L26.25 7.5L25.5031 7.22365C24.5239 6.86129 24.0342 6.6801 23.6771 6.32291C23.3199 5.96574 23.1387 5.47609 22.7764 4.49681L22.5 3.75Z" stroke="#676767" stroke-width="1.875" stroke-linejoin="round"/>
</svg>
