<svg width="30" height="30" viewBox="0 0 30 30" fill="none" xmlns="http://www.w3.org/2000/svg">
<path d="M14.4224 10.4022C14.6207 9.86595 15.3793 9.86595 15.5776 10.4022L16.4669 12.8054C16.5916 13.1425 16.8575 13.4084 17.1946 13.5331L19.5979 14.4224C20.134 14.6207 20.134 15.3793 19.5979 15.5776L17.1946 16.4669C16.8575 16.5916 16.5916 16.8575 16.4669 17.1946L15.5776 19.5979C15.3793 20.134 14.6207 20.134 14.4224 19.5979L13.5331 17.1946C13.4084 16.8575 13.1425 16.5916 12.8054 16.4669L10.4022 15.5776C9.86595 15.3793 9.86595 14.6207 10.4022 14.4224L12.8054 13.5331C13.1425 13.4084 13.4084 13.1425 13.5331 12.8054L14.4224 10.4022Z" stroke="#BB9E5C" stroke-width="1.875"/>
<path d="M15 27.5C21.9036 27.5 27.5 21.9036 27.5 15C27.5 8.09644 21.9036 2.5 15 2.5C8.09644 2.5 2.5 8.09644 2.5 15C2.5 21.9036 8.09644 27.5 15 27.5Z" stroke="#BB9E5C" stroke-width="1.875"/>
<path d="M10 10C10.8416 5.58524 12.7636 2.5 15 2.5C17.2364 2.5 19.1584 5.58524 20 10" stroke="#BB9E5C" stroke-width="1.875" stroke-linecap="round" stroke-linejoin="round"/>
<path d="M10 20C10.8416 24.4148 12.7636 27.5 15 27.5C17.2364 27.5 19.1584 24.4148 20 20" stroke="#BB9E5C" stroke-width="1.875" stroke-linecap="round" stroke-linejoin="round"/>
<path d="M2.5 15H5.625M27.5 15H24.375" stroke="#BB9E5C" stroke-width="1.875" stroke-linecap="round" stroke-linejoin="round"/>
</svg>
