<svg width="30" height="30" viewBox="0 0 30 30" fill="none" xmlns="http://www.w3.org/2000/svg">
<path d="M25.625 13.125V24.375C25.625 24.9574 25.625 25.2486 25.5299 25.4784C25.403 25.7846 25.1596 26.028 24.8534 26.1549C24.6236 26.25 24.3324 26.25 23.75 26.25C23.1676 26.25 22.8764 26.25 22.6466 26.1549C22.3404 26.028 22.097 25.7846 21.9701 25.4784C21.875 25.2486 21.875 24.9574 21.875 24.375V13.125C21.875 12.5426 21.875 12.2514 21.9701 12.0217C22.097 11.7154 22.3404 11.472 22.6466 11.3452C22.8764 11.25 23.1676 11.25 23.75 11.25C24.3324 11.25 24.6236 11.25 24.8534 11.3452C25.1596 11.472 25.403 11.7154 25.5299 12.0217C25.625 12.2514 25.625 12.5426 25.625 13.125Z" stroke="#41A094" stroke-width="1.875" stroke-linejoin="round"/>
<path d="M20.625 3.75H24.375V7.5" stroke="#41A094" stroke-width="1.875" stroke-linecap="round" stroke-linejoin="round"/>
<path d="M23.75 4.375C23.75 4.375 18.75 10.625 5.625 15" stroke="#41A094" stroke-width="1.875" stroke-linecap="round" stroke-linejoin="round"/>
<path d="M16.875 17.5V24.375C16.875 24.9574 16.875 25.2486 16.7799 25.4784C16.653 25.7846 16.4096 26.028 16.1034 26.1549C15.8736 26.25 15.5824 26.25 15 26.25C14.4176 26.25 14.1264 26.25 13.8966 26.1549C13.5904 26.028 13.347 25.7846 13.2201 25.4784C13.125 25.2486 13.125 24.9574 13.125 24.375V17.5C13.125 16.9176 13.125 16.6264 13.2201 16.3966C13.347 16.0904 13.5904 15.847 13.8966 15.7201C14.1264 15.625 14.4176 15.625 15 15.625C15.5824 15.625 15.8736 15.625 16.1034 15.7201C16.4096 15.847 16.653 16.0904 16.7799 16.3966C16.875 16.6264 16.875 16.9176 16.875 17.5Z" stroke="#41A094" stroke-width="1.875" stroke-linejoin="round"/>
<path d="M8.125 20.625V24.375C8.125 24.9574 8.125 25.2486 8.02985 25.4784C7.90299 25.7846 7.65964 26.028 7.35335 26.1549C7.12364 26.25 6.83242 26.25 6.25 26.25C5.66758 26.25 5.37636 26.25 5.14665 26.1549C4.84036 26.028 4.59701 25.7846 4.47015 25.4784C4.375 25.2486 4.375 24.9574 4.375 24.375V20.625C4.375 20.0426 4.375 19.7514 4.47015 19.5216C4.59701 19.2154 4.84036 18.972 5.14665 18.8451C5.37636 18.75 5.66758 18.75 6.25 18.75C6.83242 18.75 7.12364 18.75 7.35335 18.8451C7.65964 18.972 7.90299 19.2154 8.02985 19.5216C8.125 19.7514 8.125 20.0426 8.125 20.625Z" stroke="#41A094" stroke-width="1.875" stroke-linejoin="round"/>
</svg>
