<svg width="30" height="30" viewBox="0 0 30 30" fill="none" xmlns="http://www.w3.org/2000/svg">
<path d="M2.5 6.25L11.1413 11.1558C14.2984 12.9481 15.7016 12.9481 18.8587 11.1558L27.5 6.25" stroke="#41A094" stroke-width="1.875" stroke-linejoin="round"/>
<path d="M13.125 24.375C12.5421 24.3674 11.9585 24.3562 11.3735 24.3415C7.43791 24.2426 5.4701 24.1931 4.0562 22.773C2.64229 21.3529 2.60143 19.4359 2.51971 15.6017C2.49344 14.3689 2.49342 13.1434 2.5197 11.9105C2.60142 8.07641 2.64228 6.15935 4.05619 4.73924C5.4701 3.31912 7.43791 3.26966 11.3735 3.17072C13.7991 3.10975 16.2009 3.10976 18.6265 3.17074C22.5621 3.26968 24.5299 3.31915 25.9437 4.73926C27.3577 6.15936 27.3986 8.07643 27.4802 11.9106C27.4924 12.4781 27.4989 12.7456 27.4999 13.125" stroke="#41A094" stroke-width="1.875" stroke-linecap="round" stroke-linejoin="round"/>
<path d="M23.75 21.25C23.75 22.2855 22.9105 23.125 21.875 23.125C20.8395 23.125 20 22.2855 20 21.25C20 20.2145 20.8395 19.375 21.875 19.375C22.9105 19.375 23.75 20.2145 23.75 21.25ZM23.75 21.25V21.875C23.75 22.9105 24.5895 23.75 25.625 23.75C26.6605 23.75 27.5 22.9105 27.5 21.875V21.25C27.5 18.1434 24.9816 15.625 21.875 15.625C18.7684 15.625 16.25 18.1434 16.25 21.25C16.25 24.3566 18.7684 26.875 21.875 26.875" stroke="#41A094" stroke-width="1.875" stroke-linecap="round" stroke-linejoin="round"/>
</svg>
