<svg width="110" height="110" viewBox="0 0 110 110" fill="none" xmlns="http://www.w3.org/2000/svg">
<g filter="url(#filter0_d_66_1079)">
<rect x="26" y="24" width="60" height="60" rx="10" fill="#F9F9F9" shape-rendering="crispEdges"/>
<rect x="25" y="23" width="62" height="62" rx="11" stroke="white" stroke-opacity="0.4" stroke-width="2" shape-rendering="crispEdges"/>
<path d="M56 55.25L62.25 60.875M56 55.25L49.75 60.875M56 55.25V49" stroke="#008000" stroke-width="1.875"/>
<path d="M63.7394 59.557C64.3851 59.1856 64.708 59 65.0625 59C65.417 59 65.7399 59.1856 66.3856 59.557L67.1769 60.0121C67.8226 60.3835 68.1455 60.5691 68.3228 60.875C68.5 61.1809 68.5 61.5523 68.5 62.2949V63.2051C68.5 63.9477 68.5 64.3191 68.3228 64.625C68.1455 64.9309 67.8226 65.1165 67.1769 65.4879L66.3856 65.943C65.7399 66.3144 65.417 66.5 65.0625 66.5C64.708 66.5 64.3851 66.3144 63.7394 65.943L62.9481 65.4879C62.3024 65.1165 61.9795 64.9309 61.8022 64.625C61.625 64.3191 61.625 63.9477 61.625 63.2051V62.2949C61.625 61.5523 61.625 61.1809 61.8022 60.875C61.9795 60.5691 62.3024 60.3835 62.9481 60.0121L63.7394 59.557Z" stroke="#008000" stroke-width="1.875"/>
<path d="M45.6144 59.557C46.2601 59.1856 46.583 59 46.9375 59C47.292 59 47.6149 59.1856 48.2606 59.557L49.0519 60.0121C49.6976 60.3835 50.0205 60.5691 50.1977 60.875C50.375 61.1809 50.375 61.5523 50.375 62.2949V63.2051C50.375 63.9477 50.375 64.3191 50.1977 64.625C50.0205 64.9309 49.6976 65.1165 49.0519 65.4879L48.2606 65.943C47.6149 66.3144 47.292 66.5 46.9375 66.5C46.583 66.5 46.2601 66.3144 45.6144 65.943L44.8231 65.4879C44.1774 65.1165 43.8545 64.9309 43.6773 64.625C43.5 64.3191 43.5 63.9477 43.5 63.2051V62.2949C43.5 61.5523 43.5 61.1809 43.6773 60.875C43.8545 60.5691 44.1774 60.3835 44.8231 60.0121L45.6144 59.557Z" stroke="#008000" stroke-width="1.875"/>
<path d="M54.6769 42.057C55.3226 41.6857 55.6455 41.5 56 41.5C56.3545 41.5 56.6774 41.6857 57.3231 42.057L58.1144 42.5121C58.7601 42.8835 59.083 43.0692 59.2603 43.375C59.4375 43.6808 59.4375 44.0522 59.4375 44.7949V45.7051C59.4375 46.4478 59.4375 46.8192 59.2603 47.125C59.083 47.4308 58.7601 47.6165 58.1144 47.9879L57.3231 48.443C56.6774 48.8143 56.3545 49 56 49C55.6455 49 55.3226 48.8143 54.6769 48.443L53.8856 47.9879C53.2399 47.6165 52.917 47.4308 52.7398 47.125C52.5625 46.8192 52.5625 46.4478 52.5625 45.7051V44.7949C52.5625 44.0522 52.5625 43.6808 52.7398 43.375C52.917 43.0692 53.2399 42.8835 53.8856 42.5121L54.6769 42.057Z" stroke="#008000" stroke-width="1.875"/>
</g>
<defs>
<filter id="filter0_d_66_1079" x="0" y="-2" width="112" height="112" filterUnits="userSpaceOnUse" color-interpolation-filters="sRGB">
<feFlood flood-opacity="0" result="BackgroundImageFix"/>
<feColorMatrix in="SourceAlpha" type="matrix" values="0 0 0 0 0 0 0 0 0 0 0 0 0 0 0 0 0 0 127 0" result="hardAlpha"/>
<feOffset/>
<feGaussianBlur stdDeviation="12"/>
<feComposite in2="hardAlpha" operator="out"/>
<feColorMatrix type="matrix" values="0 0 0 0 0 0 0 0 0 0 0 0 0 0 0 0 0 0 0.15 0"/>
<feBlend mode="normal" in2="BackgroundImageFix" result="effect1_dropShadow_66_1079"/>
<feBlend mode="normal" in="SourceGraphic" in2="effect1_dropShadow_66_1079" result="shape"/>
</filter>
</defs>
</svg>
