<svg width="110" height="110" viewBox="0 0 110 110" fill="none" xmlns="http://www.w3.org/2000/svg">
<g filter="url(#filter0_d_66_1117)">
<rect x="26" y="24" width="60" height="60" rx="10" fill="#F9F9F9" shape-rendering="crispEdges"/>
<rect x="25" y="23" width="62" height="62" rx="11" stroke="white" stroke-opacity="0.4" stroke-width="2" shape-rendering="crispEdges"/>
<path d="M55.4224 49.4022C55.6207 48.866 56.3793 48.866 56.5776 49.4022L57.4669 51.8054C57.5916 52.1425 57.8575 52.4084 58.1946 52.5331L60.5979 53.4224C61.134 53.6207 61.134 54.3793 60.5979 54.5776L58.1946 55.4669C57.8575 55.5916 57.5916 55.8575 57.4669 56.1946L56.5776 58.5979C56.3793 59.134 55.6207 59.134 55.4224 58.5979L54.5331 56.1946C54.4084 55.8575 54.1425 55.5916 53.8054 55.4669L51.4022 54.5776C50.866 54.3793 50.866 53.6207 51.4022 53.4224L53.8054 52.5331C54.1425 52.4084 54.4084 52.1425 54.5331 51.8054L55.4224 49.4022Z" stroke="#BB9E5C" stroke-width="1.875"/>
<path d="M56 66.5C62.9036 66.5 68.5 60.9036 68.5 54C68.5 47.0964 62.9036 41.5 56 41.5C49.0964 41.5 43.5 47.0964 43.5 54C43.5 60.9036 49.0964 66.5 56 66.5Z" stroke="#BB9E5C" stroke-width="1.875"/>
<path d="M51 49C51.8416 44.5852 53.7636 41.5 56 41.5C58.2364 41.5 60.1584 44.5852 61 49" stroke="#BB9E5C" stroke-width="1.875" stroke-linecap="round" stroke-linejoin="round"/>
<path d="M51 59C51.8416 63.4148 53.7636 66.5 56 66.5C58.2364 66.5 60.1584 63.4148 61 59" stroke="#BB9E5C" stroke-width="1.875" stroke-linecap="round" stroke-linejoin="round"/>
<path d="M43.5 54H46.625M68.5 54H65.375" stroke="#BB9E5C" stroke-width="1.875" stroke-linecap="round" stroke-linejoin="round"/>
</g>
<defs>
<filter id="filter0_d_66_1117" x="0" y="-2" width="112" height="112" filterUnits="userSpaceOnUse" color-interpolation-filters="sRGB">
<feFlood flood-opacity="0" result="BackgroundImageFix"/>
<feColorMatrix in="SourceAlpha" type="matrix" values="0 0 0 0 0 0 0 0 0 0 0 0 0 0 0 0 0 0 127 0" result="hardAlpha"/>
<feOffset/>
<feGaussianBlur stdDeviation="12"/>
<feComposite in2="hardAlpha" operator="out"/>
<feColorMatrix type="matrix" values="0 0 0 0 0 0 0 0 0 0 0 0 0 0 0 0 0 0 0.15 0"/>
<feBlend mode="normal" in2="BackgroundImageFix" result="effect1_dropShadow_66_1117"/>
<feBlend mode="normal" in="SourceGraphic" in2="effect1_dropShadow_66_1117" result="shape"/>
</filter>
</defs>
</svg>
