<svg width="30" height="30" viewBox="0 0 30 30" fill="none" xmlns="http://www.w3.org/2000/svg">
<path d="M10 12.7084L15.154 7.5543C16.5601 6.14822 17.2631 5.44518 18.039 4.87893C19.6309 3.71713 21.4773 2.95234 23.4244 2.64823C24.3735 2.5 25.3678 2.5 27.3563 2.5C27.4601 2.5 27.5 2.54765 27.5 2.6438C27.5 4.6323 27.5 5.62656 27.3517 6.57557C27.0476 8.52272 26.2829 10.3691 25.1211 11.961C24.5549 12.7369 23.8518 13.4399 22.4458 14.846L17.2916 20" stroke="#6200EE" stroke-width="1.875" stroke-linecap="round" stroke-linejoin="round"/>
<path d="M12.9262 10.123C10.7976 10.123 8.12223 9.67206 6.13038 10.4971C4.67089 11.1016 3.59692 12.5015 2.5 13.5984L6.63246 15.3694C7.7276 15.8387 7.05814 17.2207 6.87684 18.1272C6.67481 19.1374 6.68608 19.1746 7.41448 19.903L10.097 22.5855C10.8254 23.3139 10.8626 23.3253 11.8727 23.1231C12.7793 22.9419 14.1613 22.2724 14.6305 23.3675L16.4016 27.5C17.4985 26.4031 18.8984 25.3291 19.5029 23.8696C20.328 21.8777 19.877 19.2024 19.877 17.0737" stroke="#6200EE" stroke-width="1.875" stroke-linejoin="round"/>
<path d="M15 25L13.75 26.25" stroke="#6200EE" stroke-width="1.875" stroke-linecap="round" stroke-linejoin="round"/>
<path d="M5 15L3.75 16.25" stroke="#6200EE" stroke-width="1.875" stroke-linecap="round" stroke-linejoin="round"/>
<path d="M18.75 5.1001C20.25 5.3251 21.825 5.9251 22.7017 6.8251C23.822 7.81529 24.6 9.1501 24.9 11.2501" stroke="#6200EE" stroke-width="1.875" stroke-linecap="square"/>
<path d="M22.425 7.5752L20.625 9.3752" stroke="#6200EE" stroke-width="1.875" stroke-linecap="round"/>
</svg>
