<svg width="30" height="30" viewBox="0 0 30 30" fill="none" xmlns="http://www.w3.org/2000/svg">
<path d="M15 17.5C16.3807 17.5 17.5 16.3807 17.5 15C17.5 13.6193 16.3807 12.5 15 12.5C13.6193 12.5 12.5 13.6193 12.5 15C12.5 16.3807 13.6193 17.5 15 17.5Z" stroke="#676767" stroke-width="1.875" stroke-linecap="round" stroke-linejoin="round"/>
<path d="M25 22.5C26.3807 22.5 27.5 21.3807 27.5 20C27.5 18.6193 26.3807 17.5 25 17.5C23.6193 17.5 22.5 18.6193 22.5 20C22.5 21.3807 23.6193 22.5 25 22.5Z" stroke="#676767" stroke-width="1.875" stroke-linecap="round" stroke-linejoin="round"/>
<path d="M13.75 27.5C15.1307 27.5 16.25 26.3807 16.25 25C16.25 23.6193 15.1307 22.5 13.75 22.5C12.3693 22.5 11.25 23.6193 11.25 25C11.25 26.3807 12.3693 27.5 13.75 27.5Z" stroke="#676767" stroke-width="1.875" stroke-linecap="round" stroke-linejoin="round"/>
<path d="M18.75 7.5C20.1307 7.5 21.25 6.38071 21.25 5C21.25 3.61929 20.1307 2.5 18.75 2.5C17.3693 2.5 16.25 3.61929 16.25 5C16.25 6.38071 17.3693 7.5 18.75 7.5Z" stroke="#676767" stroke-width="1.875" stroke-linecap="round" stroke-linejoin="round"/>
<path d="M5 12.5C6.38071 12.5 7.5 11.3807 7.5 10C7.5 8.61929 6.38071 7.5 5 7.5C3.61929 7.5 2.5 8.61929 2.5 10C2.5 11.3807 3.61929 12.5 5 12.5Z" stroke="#676767" stroke-width="1.875" stroke-linecap="round" stroke-linejoin="round"/>
<path d="M17.8734 7.34137L15.8795 12.6585M16.4014 5.85449L7.35156 9.14532M14.6914 17.4809L14.0616 22.519M17.238 16.1181L22.7649 18.8816M22.7164 21.0155L16.0365 23.9843" stroke="#676767" stroke-width="1.875" stroke-linecap="round" stroke-linejoin="round"/>
</svg>
